# MagicaVoxel @ Ephtracy

# group
o 

# material
mtllib cube_spawn_5.mtl
usemtl palette

# normals
vn -1 0 0
vn 1 0 0
vn 0 0 1
vn 0 0 -1
vn 0 -1 0
vn 0 1 0

# texcoords
vt 0.619141 0.5
vt 0.673828 0.5
vt 0.681641 0.5

# verts
v -1 0.1 0.9
v -1 0.1 -0.9
v -1 0.7 0.4
v -1 0.7 -0.1
v -1 0.7 -0.3
v -1 0.7 -0.4
v -1 0.9 7.45058e-009
v -1 0.9 -0.1
v -1 0.9 -0.2
v -1 0.9 -0.3
v -1 1 0.1
v -1 1 7.45058e-009
v -1 1 -0.1
v -1 1 -0.2
v -1 1 -0.4
v -1 1 -0.5
v -1 1.1 0.5
v -1 1.1 0.4
v -1 1.3 0.2
v -1 1.3 0.1
v -1 1.4 -0.5
v -1 1.4 -0.6
v -1 1.5 0.3
v -1 1.5 0.2
v -1 1.5 -0.1
v -1 1.5 -0.2
v -1 1.5 -0.5
v -1 1.5 -0.6
v -1 1.6 0.5
v -1 1.6 0.3
v -1 1.6 -0.2
v -1 1.6 -0.5
v -1 1.8 -0.4
v -1 1.8 -0.7
v -1 1.9 0.9
v -1 1.9 -0.4
v -1 1.9 -0.7
v -1 1.9 -0.9
v -0.9 0 0.9
v -0.9 0 -0.9
v -0.9 0.1 1
v -0.9 0.1 0.9
v -0.9 0.1 -0.9
v -0.9 0.1 -1
v -0.9 0.7 -0.3
v -0.9 0.7 -0.4
v -0.9 0.9 -0.2
v -0.9 0.9 -0.3
v -0.9 1 -0.1
v -0.9 1 -0.2
v -0.9 1 -0.4
v -0.9 1 -0.5
v -0.9 1.4 -0.5
v -0.9 1.4 -0.6
v -0.9 1.5 -0.1
v -0.9 1.5 -0.2
v -0.9 1.5 -0.5
v -0.9 1.5 -0.6
v -0.9 1.6 -0.2
v -0.9 1.6 -0.5
v -0.9 1.9 1
v -0.9 1.9 0.9
v -0.9 1.9 -0.3
v -0.9 1.9 -0.4
v -0.9 1.9 -0.7
v -0.9 1.9 -0.9
v -0.9 1.9 -1
v -0.9 2 0.9
v -0.9 2 -0.3
v -0.9 2 -0.7
v -0.9 2 -0.9
v 0.2 1.1 1
v 0.2 1.1 0.9
v 0.2 1.5 1
v 0.2 1.5 0.9
v 0.3 1 1
v 0.3 1 0.9
v 0.3 1.1 1
v 0.3 1.1 0.9
v 0.3 1.5 1
v 0.3 1.5 0.9
v 0.3 1.7 1
v 0.3 1.7 0.9
v 0.4 1.3 1
v 0.4 1.3 0.9
v 0.4 1.5 1
v 0.4 1.5 0.9
v 0.5 0.9 1
v 0.5 0.9 0.9
v 0.5 1.3 1
v 0.5 1.3 0.9
v -0.2 1.4 1
v -0.2 1.4 0.9
v -0.2 1.7 1
v -0.2 1.7 0.9
v -0.1 1.1 1
v -0.1 1.1 0.9
v -0.1 1.4 1
v -0.1 1.4 0.9
v -7.45058e-009 1 1
v -7.45058e-009 1 0.9
v -7.45058e-009 1.1 1
v -7.45058e-009 1.1 0.9
v 0.2 0.9 1
v 0.2 0.9 0.9
v 0.2 1 1
v 0.2 1 0.9
v 0.3 1.2 1
v 0.3 1.2 0.9
v 0.3 1.5 1
v 0.3 1.5 0.9
v 0.4 1 1
v 0.4 1 0.9
v 0.4 1.2 1
v 0.4 1.2 0.9
v 0.9 0 0.9
v 0.9 0 -0.9
v 0.9 0.1 1
v 0.9 0.1 0.9
v 0.9 0.1 -0.9
v 0.9 0.1 -1
v 0.9 1.9 1
v 0.9 1.9 0.9
v 0.9 1.9 -0.9
v 0.9 1.9 -1
v 0.9 2 0.9
v 0.9 2 -0.9
v 1 0.1 0.9
v 1 0.1 -0.9
v 1 0.6 -0.1
v 1 0.6 -0.3
v 1 0.8 -0.1
v 1 0.8 -0.2
v 1 0.8 -0.3
v 1 0.8 -0.4
v 1 1 -0.2
v 1 1 -0.3
v 1 1.1 -0.3
v 1 1.1 -0.4
v 1 1.9 0.9
v 1 1.9 -0.9
v -0.9 0.1 1
v -0.9 1.9 1
v -0.5 0.9 1
v -0.5 1.4 1
v -0.4 0.9 1
v -0.4 1.4 1
v -0.2 1.4 1
v -0.2 1.7 1
v -0.1 0.5 1
v -0.1 0.7 1
v -0.1 1.1 1
v -0.1 1.4 1
v -7.45058e-009 0.5 1
v -7.45058e-009 0.6 1
v -7.45058e-009 0.7 1
v -7.45058e-009 0.8 1
v -7.45058e-009 1 1
v -7.45058e-009 1.1 1
v 0.1 0.5 1
v 0.1 0.6 1
v 0.1 0.8 1
v 0.1 0.9 1
v 0.2 0.4 1
v 0.2 0.5 1
v 0.2 0.9 1
v 0.2 1 1
v 0.2 1.1 1
v 0.2 1.5 1
v 0.3 0.6 1
v 0.3 0.9 1
v 0.3 1 1
v 0.3 1.1 1
v 0.3 1.2 1
v 0.3 1.5 1
v 0.3 1.7 1
v 0.4 0.4 1
v 0.4 0.6 1
v 0.4 1 1
v 0.4 1.2 1
v 0.4 1.3 1
v 0.4 1.5 1
v 0.5 0.9 1
v 0.5 1.3 1
v 0.9 0.1 1
v 0.9 1.9 1
v -1 0.1 0.9
v -1 1.9 0.9
v -0.9 0 0.9
v -0.9 0.1 0.9
v -0.9 1.9 0.9
v -0.9 2 0.9
v -0.2 1.4 0.9
v -0.2 1.7 0.9
v -0.1 1.1 0.9
v -0.1 1.4 0.9
v -7.45058e-009 1 0.9
v -7.45058e-009 1.1 0.9
v 0.2 0.9 0.9
v 0.2 1 0.9
v 0.2 1.1 0.9
v 0.2 1.5 0.9
v 0.3 0.9 0.9
v 0.3 1 0.9
v 0.3 1.1 0.9
v 0.3 1.2 0.9
v 0.3 1.5 0.9
v 0.3 1.7 0.9
v 0.4 1 0.9
v 0.4 1.2 0.9
v 0.4 1.3 0.9
v 0.4 1.5 0.9
v 0.5 0.9 0.9
v 0.5 1.3 0.9
v 0.9 0 0.9
v 0.9 0.1 0.9
v 0.9 1.9 0.9
v 0.9 2 0.9
v 1 0.1 0.9
v 1 1.9 0.9
v -1 0.7 -0.4
v -1 1 -0.4
v -0.9 0.7 -0.4
v -0.9 1 -0.4
v -1 1 -0.5
v -1 1.4 -0.5
v -1 1.5 -0.5
v -1 1.6 -0.5
v -0.9 1 -0.5
v -0.9 1.4 -0.5
v -0.9 1.5 -0.5
v -0.9 1.6 -0.5
v -1 1.4 -0.6
v -1 1.5 -0.6
v -0.9 1.4 -0.6
v -0.9 1.5 -0.6
v -1 1 -0.1
v -1 1.5 -0.1
v -0.9 1 -0.1
v -0.9 1.5 -0.1
v -1 0.9 -0.2
v -1 1 -0.2
v -1 1.5 -0.2
v -1 1.6 -0.2
v -0.9 0.9 -0.2
v -0.9 1 -0.2
v -0.9 1.5 -0.2
v -0.9 1.6 -0.2
v -1 0.7 -0.3
v -1 0.9 -0.3
v -0.9 0.7 -0.3
v -0.9 0.9 -0.3
v -1 0.1 -0.9
v -1 1.9 -0.9
v -0.9 0 -0.9
v -0.9 0.1 -0.9
v -0.9 1.9 -0.9
v -0.9 2 -0.9
v 0.9 0 -0.9
v 0.9 0.1 -0.9
v 0.9 1.9 -0.9
v 0.9 2 -0.9
v 1 0.1 -0.9
v 1 1.9 -0.9
v -0.9 0.1 -1
v -0.9 1.9 -1
v -0.7 0.5 -1
v -0.7 0.7 -1
v -0.6 0.7 -1
v -0.6 0.8 -1
v -0.5 0.5 -1
v -0.5 0.6 -1
v -0.5 0.8 -1
v -0.5 1.1 -1
v -0.4 0.9 -1
v -0.4 1.1 -1
v -0.4 1.4 -1
v -0.3 1.1 -1
v -0.3 1.4 -1
v -0.2 0.6 -1
v -0.2 0.7 -1
v -0.1 0.7 -1
v -0.1 0.9 -1
v 0.3 0.6 -1
v 0.3 0.7 -1
v 0.4 0.6 -1
v 0.4 0.7 -1
v 0.9 0.1 -1
v 0.9 1.9 -1
v -0.9 0 0.9
v 0.9 0 0.9
v -0.9 0 -0.9
v 0.9 0 -0.9
v -0.9 0.1 1
v 0.9 0.1 1
v -1 0.1 0.9
v -0.9 0.1 0.9
v 0.9 0.1 0.9
v 1 0.1 0.9
v -1 0.1 -0.9
v -0.9 0.1 -0.9
v 0.9 0.1 -0.9
v 1 0.1 -0.9
v -0.9 0.1 -1
v 0.9 0.1 -1
v 0.3 1 1
v 0.4 1 1
v 0.3 1 0.9
v 0.4 1 0.9
v 0.2 1.1 1
v 0.3 1.1 1
v 0.2 1.1 0.9
v 0.3 1.1 0.9
v 0.4 1.3 1
v 0.5 1.3 1
v 0.4 1.3 0.9
v 0.5 1.3 0.9
v 0.3 1.5 1
v 0.4 1.5 1
v 0.3 1.5 0.9
v 0.4 1.5 0.9
v -1 1.5 -0.1
v -0.9 1.5 -0.1
v -1 1.5 -0.2
v -0.9 1.5 -0.2
v -1 1.5 -0.5
v -0.9 1.5 -0.5
v -1 1.5 -0.6
v -0.9 1.5 -0.6
v -1 1.6 -0.2
v -0.9 1.6 -0.2
v -1 1.6 -0.5
v -0.9 1.6 -0.5
v -0.2 1.7 1
v 0.3 1.7 1
v -0.2 1.7 0.9
v 0.3 1.7 0.9
v -1 0.7 -0.3
v -0.9 0.7 -0.3
v -1 0.7 -0.4
v -0.9 0.7 -0.4
v 0.2 0.9 1
v 0.3 0.9 1
v 0.5 0.9 1
v 0.2 0.9 0.9
v 0.3 0.9 0.9
v 0.5 0.9 0.9
v -1 0.9 -0.2
v -0.9 0.9 -0.2
v -1 0.9 -0.3
v -0.9 0.9 -0.3
v -7.45058e-009 1 1
v 0.2 1 1
v -7.45058e-009 1 0.9
v 0.2 1 0.9
v -1 1 -0.1
v -0.9 1 -0.1
v -1 1 -0.2
v -0.9 1 -0.2
v -1 1 -0.4
v -0.9 1 -0.4
v -1 1 -0.5
v -0.9 1 -0.5
v -0.1 1.1 1
v -7.45058e-009 1.1 1
v -0.1 1.1 0.9
v -7.45058e-009 1.1 0.9
v 0.3 1.2 1
v 0.4 1.2 1
v 0.3 1.2 0.9
v 0.4 1.2 0.9
v -0.2 1.4 1
v -0.1 1.4 1
v -0.2 1.4 0.9
v -0.1 1.4 0.9
v -1 1.4 -0.5
v -0.9 1.4 -0.5
v -1 1.4 -0.6
v -0.9 1.4 -0.6
v 0.2 1.5 1
v 0.3 1.5 1
v 0.2 1.5 0.9
v 0.3 1.5 0.9
v -0.9 1.9 1
v 0.9 1.9 1
v -1 1.9 0.9
v -0.9 1.9 0.9
v 0.9 1.9 0.9
v 1 1.9 0.9
v -0.9 1.9 -0.3
v -1 1.9 -0.4
v -0.9 1.9 -0.4
v -1 1.9 -0.7
v -0.9 1.9 -0.7
v -1 1.9 -0.9
v -0.9 1.9 -0.9
v 0.9 1.9 -0.9
v 1 1.9 -0.9
v -0.9 1.9 -1
v 0.9 1.9 -1
v -0.9 2 0.9
v 0.9 2 0.9
v 0.4 2 0.7
v 0.5 2 0.7
v 0.4 2 0.6
v 0.5 2 0.6
v -0.1 2 0.4
v -7.45058e-009 2 0.4
v 0.1 2 0.4
v 0.2 2 0.4
v -7.45058e-009 2 0.3
v 0.1 2 0.3
v -0.3 2 0.1
v -0.2 2 0.1
v -0.1 2 0.1
v -7.45058e-009 2 0.1
v 0.2 2 0.1
v 0.5 2 0.1
v -0.4 2 7.45058e-009
v -0.3 2 7.45058e-009
v -7.45058e-009 2 7.45058e-009
v 0.1 2 7.45058e-009
v -0.6 2 -0.1
v -0.4 2 -0.1
v -0.3 2 -0.1
v -0.2 2 -0.1
v -7.45058e-009 2 -0.1
v 0.1 2 -0.1
v 0.4 2 -0.1
v 0.5 2 -0.1
v -0.8 2 -0.2
v -0.6 2 -0.2
v -0.3 2 -0.2
v -0.2 2 -0.2
v 0.3 2 -0.2
v 0.4 2 -0.2
v -0.9 2 -0.3
v -0.8 2 -0.3
v -0.3 2 -0.3
v -0.2 2 -0.3
v -0.1 2 -0.3
v -7.45058e-009 2 -0.3
v 0.3 2 -0.3
v 0.4 2 -0.3
v -0.1 2 -0.4
v 0.2 2 -0.4
v 0.4 2 -0.4
v 0.5 2 -0.4
v 0.3 2 -0.5
v 0.4 2 -0.5
v -0.4 2 -0.6
v -0.3 2 -0.6
v 0.2 2 -0.6
v 0.3 2 -0.6
v 0.4 2 -0.6
v 0.5 2 -0.6
v -0.9 2 -0.7
v -0.4 2 -0.7
v -0.9 2 -0.9
v 0.9 2 -0.9

# faces
f 3/3/1 2/3/1 1/3/1
f 4/3/1 2/3/1 3/3/1
f 5/3/1 2/3/1 4/3/1
f 6/3/1 2/3/1 5/3/1
f 7/1/1 4/1/1 3/1/1
f 8/3/1 5/3/1 4/3/1
f 8/1/1 4/1/1 7/1/1
f 9/3/1 5/3/1 8/3/1
f 10/3/1 5/3/1 9/3/1
f 11/1/1 7/1/1 3/1/1
f 12/3/1 8/3/1 7/3/1
f 12/1/1 7/1/1 11/1/1
f 12/3/1 9/3/1 8/3/1
f 13/3/1 9/3/1 12/3/1
f 14/3/1 9/3/1 13/3/1
f 15/3/1 2/3/1 6/3/1
f 16/3/1 2/3/1 15/3/1
f 17/3/1 3/3/1 1/3/1
f 18/1/1 11/1/1 3/1/1
f 18/3/1 3/3/1 17/3/1
f 19/1/1 18/1/1 17/1/1
f 19/1/1 11/1/1 18/1/1
f 20/3/1 13/3/1 12/3/1
f 20/1/1 11/1/1 19/1/1
f 20/3/1 12/3/1 11/3/1
f 21/3/1 2/3/1 16/3/1
f 22/3/1 2/3/1 21/3/1
f 23/1/1 19/1/1 17/1/1
f 24/3/1 20/3/1 19/3/1
f 24/1/1 19/1/1 23/1/1
f 25/3/1 13/3/1 20/3/1
f 25/3/1 20/3/1 24/3/1
f 28/3/1 2/3/1 22/3/1
f 29/3/1 17/3/1 1/3/1
f 29/1/1 23/1/1 17/1/1
f 30/3/1 24/3/1 23/3/1
f 30/1/1 23/1/1 29/1/1
f 30/3/1 26/3/1 25/3/1
f 30/3/1 25/3/1 24/3/1
f 31/3/1 26/3/1 30/3/1
f 32/3/1 28/3/1 27/3/1
f 33/3/1 31/3/1 30/3/1
f 33/3/1 32/3/1 31/3/1
f 33/3/1 30/3/1 29/3/1
f 34/3/1 28/3/1 32/3/1
f 34/3/1 32/3/1 33/3/1
f 34/3/1 2/3/1 28/3/1
f 35/3/1 29/3/1 1/3/1
f 35/3/1 33/3/1 29/3/1
f 36/1/1 34/1/1 33/1/1
f 36/3/1 33/3/1 35/3/1
f 37/3/1 2/3/1 34/3/1
f 37/1/1 34/1/1 36/1/1
f 38/3/1 2/3/1 37/3/1
f 42/3/1 40/3/1 39/3/1
f 43/3/1 40/3/1 42/3/1
f 48/2/1 46/2/1 45/2/1
f 50/2/1 48/2/1 47/2/1
f 51/2/1 46/2/1 48/2/1
f 51/2/1 48/2/1 50/2/1
f 53/2/1 50/2/1 49/2/1
f 53/2/1 52/2/1 51/2/1
f 53/2/1 51/2/1 50/2/1
f 55/2/1 53/2/1 49/2/1
f 55/2/1 54/2/1 53/2/1
f 56/2/1 54/2/1 55/2/1
f 57/2/1 54/2/1 56/2/1
f 58/2/1 54/2/1 57/2/1
f 59/2/1 57/2/1 56/2/1
f 60/2/1 57/2/1 59/2/1
f 61/3/1 42/3/1 41/3/1
f 62/3/1 42/3/1 61/3/1
f 66/3/1 44/3/1 43/3/1
f 67/3/1 44/3/1 66/3/1
f 68/3/1 63/3/1 62/3/1
f 69/1/1 64/1/1 63/1/1
f 69/3/1 63/3/1 68/3/1
f 69/1/1 65/1/1 64/1/1
f 70/3/1 66/3/1 65/3/1
f 70/1/1 65/1/1 69/1/1
f 71/3/1 66/3/1 70/3/1
f 74/1/1 73/1/1 72/1/1
f 75/1/1 73/1/1 74/1/1
f 78/3/1 77/3/1 76/3/1
f 79/3/1 77/3/1 78/3/1
f 82/3/1 81/3/1 80/3/1
f 83/3/1 81/3/1 82/3/1
f 86/3/1 85/3/1 84/3/1
f 87/3/1 85/3/1 86/3/1
f 90/3/1 89/3/1 88/3/1
f 91/3/1 89/3/1 90/3/1
f 92/3/2 93/3/2 94/3/2
f 94/3/2 93/3/2 95/3/2
f 96/3/2 97/3/2 98/3/2
f 98/3/2 97/3/2 99/3/2
f 100/3/2 101/3/2 102/3/2
f 102/3/2 101/3/2 103/3/2
f 104/3/2 105/3/2 106/3/2
f 106/3/2 105/3/2 107/3/2
f 108/1/2 109/1/2 110/1/2
f 110/1/2 109/1/2 111/1/2
f 112/3/2 113/3/2 114/3/2
f 114/3/2 113/3/2 115/3/2
f 116/3/2 117/3/2 119/3/2
f 119/3/2 117/3/2 120/3/2
f 118/3/2 119/3/2 122/3/2
f 122/3/2 119/3/2 123/3/2
f 120/3/2 121/3/2 124/3/2
f 124/3/2 121/3/2 125/3/2
f 123/3/2 124/3/2 126/3/2
f 126/3/2 124/3/2 127/3/2
f 128/3/2 129/3/2 130/3/2
f 130/3/2 129/3/2 131/3/2
f 128/3/2 130/3/2 132/3/2
f 130/1/2 131/1/2 132/1/2
f 132/1/2 131/1/2 133/1/2
f 131/3/2 129/3/2 134/3/2
f 133/1/2 131/1/2 134/1/2
f 134/3/2 129/3/2 135/3/2
f 132/3/2 133/3/2 136/3/2
f 133/1/2 134/1/2 136/1/2
f 134/1/2 135/1/2 136/1/2
f 136/1/2 135/1/2 137/1/2
f 136/3/2 137/3/2 138/3/2
f 137/1/2 135/1/2 138/1/2
f 135/3/2 129/3/2 139/3/2
f 138/1/2 135/1/2 139/1/2
f 136/3/2 138/3/2 140/3/2
f 128/3/2 132/3/2 140/3/2
f 138/3/2 139/3/2 140/3/2
f 132/3/2 136/3/2 140/3/2
f 139/3/2 129/3/2 141/3/2
f 140/3/2 139/3/2 141/3/2
f 144/3/3 143/3/3 142/3/3
f 145/3/3 143/3/3 144/3/3
f 146/3/3 144/3/3 142/3/3
f 146/1/3 145/1/3 144/1/3
f 147/3/3 143/3/3 145/3/3
f 147/1/3 145/1/3 146/1/3
f 148/3/3 147/3/3 146/3/3
f 148/3/3 143/3/3 147/3/3
f 149/3/3 143/3/3 148/3/3
f 150/3/3 146/3/3 142/3/3
f 150/3/3 148/3/3 146/3/3
f 151/3/3 148/3/3 150/3/3
f 152/3/3 148/3/3 151/3/3
f 153/3/3 148/3/3 152/3/3
f 154/3/3 150/3/3 142/3/3
f 154/1/3 151/1/3 150/1/3
f 155/1/3 151/1/3 154/1/3
f 156/3/3 152/3/3 151/3/3
f 156/1/3 151/1/3 155/1/3
f 157/3/3 152/3/3 156/3/3
f 158/3/3 152/3/3 157/3/3
f 159/3/3 152/3/3 158/3/3
f 160/3/3 155/3/3 154/3/3
f 160/3/3 154/3/3 142/3/3
f 161/1/3 156/1/3 155/1/3
f 161/3/3 155/3/3 160/3/3
f 161/1/3 157/1/3 156/1/3
f 162/3/3 158/3/3 157/3/3
f 162/1/3 157/1/3 161/1/3
f 163/3/3 158/3/3 162/3/3
f 164/3/3 160/3/3 142/3/3
f 165/1/3 161/1/3 160/1/3
f 165/3/3 160/3/3 164/3/3
f 165/1/3 162/1/3 161/1/3
f 165/1/3 163/1/3 162/1/3
f 166/3/3 158/3/3 163/3/3
f 166/1/3 163/1/3 165/1/3
f 167/3/3 158/3/3 166/3/3
f 170/1/3 166/1/3 165/1/3
f 170/1/3 165/1/3 164/1/3
f 171/1/3 166/1/3 170/1/3
f 173/1/3 169/1/3 168/1/3
f 174/1/3 169/1/3 173/1/3
f 175/1/3 169/1/3 174/1/3
f 176/3/3 143/3/3 149/3/3
f 177/3/3 164/3/3 142/3/3
f 177/1/3 170/1/3 164/1/3
f 178/3/3 171/3/3 170/3/3
f 178/1/3 170/1/3 177/1/3
f 179/3/3 173/3/3 172/3/3
f 179/3/3 174/3/3 173/3/3
f 180/3/3 174/3/3 179/3/3
f 182/3/3 176/3/3 175/3/3
f 183/3/3 171/3/3 178/3/3
f 183/3/3 178/3/3 177/3/3
f 184/3/3 182/3/3 181/3/3
f 185/3/3 183/3/3 177/3/3
f 185/3/3 184/3/3 183/3/3
f 185/3/3 177/3/3 142/3/3
f 186/3/3 182/3/3 184/3/3
f 186/3/3 184/3/3 185/3/3
f 186/3/3 143/3/3 176/3/3
f 186/3/3 176/3/3 182/3/3
f 190/3/3 188/3/3 187/3/3
f 191/3/3 188/3/3 190/3/3
f 196/2/3 194/2/3 193/2/3
f 198/2/3 196/2/3 195/2/3
f 200/2/3 198/2/3 197/2/3
f 201/2/3 196/2/3 198/2/3
f 201/2/3 198/2/3 200/2/3
f 202/2/3 194/2/3 196/2/3
f 202/2/3 196/2/3 201/2/3
f 203/2/3 201/2/3 200/2/3
f 203/2/3 200/2/3 199/2/3
f 204/2/3 201/2/3 203/2/3
f 205/2/3 201/2/3 204/2/3
f 207/2/3 194/2/3 202/2/3
f 208/2/3 194/2/3 207/2/3
f 209/2/3 204/2/3 203/2/3
f 210/2/3 207/2/3 206/2/3
f 211/2/3 207/2/3 210/2/3
f 212/2/3 207/2/3 211/2/3
f 213/2/3 209/2/3 203/2/3
f 213/2/3 210/2/3 209/2/3
f 213/2/3 211/2/3 210/2/3
f 214/2/3 211/2/3 213/2/3
f 215/3/3 190/3/3 189/3/3
f 216/3/3 190/3/3 215/3/3
f 217/3/3 192/3/3 191/3/3
f 218/3/3 192/3/3 217/3/3
f 219/3/3 217/3/3 216/3/3
f 220/3/3 217/3/3 219/3/3
f 223/3/3 222/3/3 221/3/3
f 224/3/3 222/3/3 223/3/3
f 229/3/3 226/3/3 225/3/3
f 230/3/3 226/3/3 229/3/3
f 231/3/3 228/3/3 227/3/3
f 232/3/3 228/3/3 231/3/3
f 235/3/3 234/3/3 233/3/3
f 236/3/3 234/3/3 235/3/3
f 237/3/4 238/3/4 239/3/4
f 239/3/4 238/3/4 240/3/4
f 241/3/4 242/3/4 245/3/4
f 245/3/4 242/3/4 246/3/4
f 243/3/4 244/3/4 247/3/4
f 247/3/4 244/3/4 248/3/4
f 249/3/4 250/3/4 251/3/4
f 251/3/4 250/3/4 252/3/4
f 253/3/4 254/3/4 256/3/4
f 256/3/4 254/3/4 257/3/4
f 255/3/4 256/3/4 259/3/4
f 259/3/4 256/3/4 260/3/4
f 257/3/4 258/3/4 261/3/4
f 261/3/4 258/3/4 262/3/4
f 260/3/4 261/3/4 263/3/4
f 263/3/4 261/3/4 264/3/4
f 265/3/4 266/3/4 267/3/4
f 267/3/4 266/3/4 268/3/4
f 267/1/4 268/1/4 269/1/4
f 268/3/4 266/3/4 269/3/4
f 269/3/4 266/3/4 270/3/4
f 265/3/4 267/3/4 271/3/4
f 267/1/4 269/1/4 271/1/4
f 269/1/4 270/1/4 271/1/4
f 271/1/4 270/1/4 272/1/4
f 270/3/4 266/3/4 273/3/4
f 272/1/4 270/1/4 273/1/4
f 273/3/4 266/3/4 274/3/4
f 272/1/4 273/1/4 275/1/4
f 273/1/4 274/1/4 275/1/4
f 274/3/4 266/3/4 276/3/4
f 275/1/4 274/1/4 276/1/4
f 276/3/4 266/3/4 277/3/4
f 275/3/4 276/3/4 278/3/4
f 276/1/4 277/1/4 278/1/4
f 277/3/4 266/3/4 279/3/4
f 278/1/4 277/1/4 279/1/4
f 271/3/4 272/3/4 280/3/4
f 272/1/4 275/1/4 280/1/4
f 280/1/4 275/1/4 281/1/4
f 280/3/4 281/3/4 282/3/4
f 281/1/4 275/1/4 282/1/4
f 278/3/4 279/3/4 283/3/4
f 282/1/4 275/1/4 283/1/4
f 275/3/4 278/3/4 283/3/4
f 280/3/4 282/3/4 284/3/4
f 271/3/4 280/3/4 284/3/4
f 282/3/4 283/3/4 284/3/4
f 284/3/4 283/3/4 285/3/4
f 271/3/4 284/3/4 286/3/4
f 284/1/4 285/1/4 286/1/4
f 285/3/4 283/3/4 287/3/4
f 286/1/4 285/1/4 287/1/4
f 265/3/4 271/3/4 288/3/4
f 271/3/4 286/3/4 288/3/4
f 286/3/4 287/3/4 288/3/4
f 279/3/4 266/3/4 289/3/4
f 288/3/4 287/3/4 289/3/4
f 287/3/4 283/3/4 289/3/4
f 283/3/4 279/3/4 289/3/4
f 292/3/5 291/3/5 290/3/5
f 293/3/5 291/3/5 292/3/5
f 297/3/5 295/3/5 294/3/5
f 298/3/5 295/3/5 297/3/5
f 300/3/5 297/3/5 296/3/5
f 301/3/5 297/3/5 300/3/5
f 302/3/5 299/3/5 298/3/5
f 303/3/5 299/3/5 302/3/5
f 304/3/5 302/3/5 301/3/5
f 305/3/5 302/3/5 304/3/5
f 308/3/5 307/3/5 306/3/5
f 309/3/5 307/3/5 308/3/5
f 312/1/5 311/1/5 310/1/5
f 313/1/5 311/1/5 312/1/5
f 316/3/5 315/3/5 314/3/5
f 317/3/5 315/3/5 316/3/5
f 320/3/5 319/3/5 318/3/5
f 321/3/5 319/3/5 320/3/5
f 324/3/5 323/3/5 322/3/5
f 325/3/5 323/3/5 324/3/5
f 328/3/5 327/3/5 326/3/5
f 329/3/5 327/3/5 328/3/5
f 332/3/5 331/3/5 330/3/5
f 333/3/5 331/3/5 332/3/5
f 336/3/5 335/3/5 334/3/5
f 337/3/5 335/3/5 336/3/5
f 338/3/6 339/3/6 340/3/6
f 340/3/6 339/3/6 341/3/6
f 342/1/6 343/1/6 345/1/6
f 343/3/6 344/3/6 346/3/6
f 345/1/6 343/1/6 346/1/6
f 346/3/6 344/3/6 347/3/6
f 348/3/6 349/3/6 350/3/6
f 350/3/6 349/3/6 351/3/6
f 352/3/6 353/3/6 354/3/6
f 354/3/6 353/3/6 355/3/6
f 356/3/6 357/3/6 358/3/6
f 358/3/6 357/3/6 359/3/6
f 360/3/6 361/3/6 362/3/6
f 362/3/6 361/3/6 363/3/6
f 364/3/6 365/3/6 366/3/6
f 366/3/6 365/3/6 367/3/6
f 368/3/6 369/3/6 370/3/6
f 370/3/6 369/3/6 371/3/6
f 372/3/6 373/3/6 374/3/6
f 374/3/6 373/3/6 375/3/6
f 376/3/6 377/3/6 378/3/6
f 378/3/6 377/3/6 379/3/6
f 380/1/6 381/1/6 382/1/6
f 382/1/6 381/1/6 383/1/6
f 384/3/6 385/3/6 387/3/6
f 387/3/6 385/3/6 388/3/6
f 386/3/6 387/3/6 390/3/6
f 386/3/6 390/3/6 391/3/6
f 391/3/6 390/3/6 392/3/6
f 391/1/6 392/1/6 393/1/6
f 393/1/6 392/1/6 394/1/6
f 393/3/6 394/3/6 395/3/6
f 395/3/6 394/3/6 396/3/6
f 388/3/6 389/3/6 397/3/6
f 397/3/6 389/3/6 398/3/6
f 396/3/6 397/3/6 399/3/6
f 399/3/6 397/3/6 400/3/6
f 401/3/6 402/3/6 403/3/6
f 403/3/6 402/3/6 404/3/6
f 401/3/6 403/3/6 405/3/6
f 403/1/6 404/1/6 405/1/6
f 404/3/6 402/3/6 406/3/6
f 405/1/6 404/1/6 406/1/6
f 401/3/6 405/3/6 407/3/6
f 405/3/6 406/3/6 407/3/6
f 407/3/6 406/3/6 408/3/6
f 408/3/6 406/3/6 409/3/6
f 409/3/6 406/3/6 410/3/6
f 407/1/6 408/1/6 411/1/6
f 408/3/6 409/3/6 411/3/6
f 409/1/6 410/1/6 412/1/6
f 411/3/6 409/3/6 412/3/6
f 401/3/6 407/3/6 413/3/6
f 413/3/6 407/3/6 414/3/6
f 407/1/6 411/1/6 415/1/6
f 414/3/6 407/3/6 415/3/6
f 411/1/6 412/1/6 415/1/6
f 415/1/6 412/1/6 416/1/6
f 412/1/6 410/1/6 417/1/6
f 416/1/6 412/1/6 417/1/6
f 410/3/6 406/3/6 417/3/6
f 406/3/6 402/3/6 418/3/6
f 417/3/6 406/3/6 418/3/6
f 401/3/6 413/3/6 419/3/6
f 413/1/6 414/1/6 420/1/6
f 419/3/6 413/3/6 420/3/6
f 416/1/6 417/1/6 421/1/6
f 415/3/6 416/3/6 421/3/6
f 414/3/6 415/3/6 421/3/6
f 417/1/6 418/1/6 421/1/6
f 421/1/6 418/1/6 422/1/6
f 401/3/6 419/3/6 423/3/6
f 419/1/6 420/1/6 424/1/6
f 423/3/6 419/3/6 424/3/6
f 420/1/6 414/1/6 425/1/6
f 424/1/6 420/1/6 425/1/6
f 414/3/6 421/3/6 426/3/6
f 425/1/6 414/1/6 426/1/6
f 421/3/6 422/3/6 426/3/6
f 426/3/6 422/3/6 427/3/6
f 422/1/6 418/1/6 428/1/6
f 427/3/6 422/3/6 428/3/6
f 428/1/6 418/1/6 429/1/6
f 418/3/6 402/3/6 430/3/6
f 429/1/6 418/1/6 430/1/6
f 401/3/6 423/3/6 431/3/6
f 423/1/6 424/1/6 432/1/6
f 431/3/6 423/3/6 432/3/6
f 424/1/6 425/1/6 432/1/6
f 426/3/6 427/3/6 433/3/6
f 432/1/6 425/1/6 433/1/6
f 425/3/6 426/3/6 433/3/6
f 433/3/6 427/3/6 434/3/6
f 428/1/6 429/1/6 435/1/6
f 427/1/6 428/1/6 435/1/6
f 429/3/6 430/3/6 436/3/6
f 435/1/6 429/1/6 436/1/6
f 401/3/6 431/3/6 437/3/6
f 431/1/6 432/1/6 438/1/6
f 437/3/6 431/3/6 438/3/6
f 433/1/6 434/1/6 438/1/6
f 432/1/6 433/1/6 438/1/6
f 438/1/6 434/1/6 439/1/6
f 434/3/6 427/3/6 440/3/6
f 439/1/6 434/1/6 440/1/6
f 440/3/6 427/3/6 441/3/6
f 427/1/6 435/1/6 442/1/6
f 441/3/6 427/3/6 442/3/6
f 435/3/6 436/3/6 443/3/6
f 442/1/6 435/1/6 443/1/6
f 436/3/6 430/3/6 444/3/6
f 443/3/6 436/3/6 444/3/6
f 442/1/6 443/1/6 445/1/6
f 440/3/6 441/3/6 445/3/6
f 443/1/6 444/1/6 445/1/6
f 439/3/6 440/3/6 445/3/6
f 441/1/6 442/1/6 445/1/6
f 445/1/6 444/1/6 446/1/6
f 444/3/6 430/3/6 447/3/6
f 446/1/6 444/1/6 447/1/6
f 430/3/6 402/3/6 448/3/6
f 447/3/6 430/3/6 448/3/6
f 446/1/6 447/1/6 449/1/6
f 447/1/6 448/1/6 449/1/6
f 449/1/6 448/1/6 450/1/6
f 438/1/6 439/1/6 451/1/6
f 437/1/6 438/1/6 451/1/6
f 445/3/6 446/3/6 452/3/6
f 451/1/6 439/1/6 452/1/6
f 439/3/6 445/3/6 452/3/6
f 446/1/6 449/1/6 453/1/6
f 452/3/6 446/3/6 453/3/6
f 449/3/6 450/3/6 454/3/6
f 453/1/6 449/1/6 454/1/6
f 450/1/6 448/1/6 455/1/6
f 454/3/6 450/3/6 455/3/6
f 448/3/6 402/3/6 456/3/6
f 455/1/6 448/1/6 456/1/6
f 437/1/6 451/1/6 457/1/6
f 454/3/6 455/3/6 458/3/6
f 457/1/6 451/1/6 458/1/6
f 453/3/6 454/3/6 458/3/6
f 455/3/6 456/3/6 458/3/6
f 451/3/6 452/3/6 458/3/6
f 452/3/6 453/3/6 458/3/6
f 457/3/6 458/3/6 459/3/6
f 456/3/6 402/3/6 460/3/6
f 459/3/6 458/3/6 460/3/6
f 458/3/6 456/3/6 460/3/6
