# MagicaVoxel @ Ephtracy

# group
o 

# material
mtllib gun_swivel_turret.mtl
usemtl palette

# normals
vn -1 0 0
vn 1 0 0
vn 0 0 1
vn 0 0 -1
vn 0 -1 0
vn 0 1 0

# texcoords
vt 0.251953 0.5
vt 0.619141 0.5
vt 0.962891 0.5
vt 0.978516 0.5

# verts
v -0.4 0.6 0.3
v -0.4 0.6 0.2
v -0.4 0.6 0.1
v -0.4 0.7 0.3
v -0.4 0.7 0.2
v -0.4 0.7 0.1
v -0.3 0.6 0.4
v -0.3 0.6 0.3
v -0.3 0.6 0.1
v -0.3 0.6 -0.1
v -0.3 0.7 0.4
v -0.3 0.7 0.3
v -0.3 0.7 0.2
v -0.3 0.7 0.1
v -0.3 0.7 -0.1
v -0.3 0.8 0.3
v -0.3 0.8 0.2
v -0.3 0.8 0.1
v -0.2 0.6 -0.1
v -0.2 0.6 -0.2
v -0.2 0.6 -0.4
v -0.2 0.7 0.1
v -0.2 0.7 -0.1
v -0.2 0.7 -0.2
v -0.2 0.7 -0.4
v -0.2 0.8 0.1
v -0.2 0.8 -0.1
v -0.1 0.4 0.1
v -0.1 0.4 -0.1
v -0.1 0.5 0.3
v -0.1 0.5 0.2
v -0.1 0.5 0.1
v -0.1 0.5 -0.1
v -0.1 0.5 -0.4
v -0.1 0.6 0.3
v -0.1 0.6 0.2
v -0.1 0.6 0.1
v -0.1 0.6 -0.1
v -0.1 0.6 -0.2
v -0.1 0.6 -0.4
v -0.1 0.7 -0.1
v -0.1 0.7 -0.2
v -0.1 0.7 -0.3
v -0.1 0.7 -0.4
v -0.1 0.8 -0.1
v -0.1 0.8 -0.2
v -0.1 0.8 -0.3
v -0.1 0.8 -0.4
v 0.1 0.6 -7.45058e-009
v 0.1 0.6 -0.1
v 0.1 0.6 -0.2
v 0.1 0.6 -0.4
v 0.1 0.7 -7.45058e-009
v 0.1 0.7 -0.1
v 0.1 0.7 -0.2
v 0.1 0.7 -0.3
v 0.1 0.7 -0.4
v -0.1 0.6 -7.45058e-009
v -0.1 0.6 -0.1
v -0.1 0.6 -0.2
v -0.1 0.6 -0.4
v -0.1 0.7 -7.45058e-009
v -0.1 0.7 -0.1
v -0.1 0.7 -0.2
v -0.1 0.7 -0.3
v -0.1 0.7 -0.4
v 0.1 0.4 0.1
v 0.1 0.4 -0.1
v 0.1 0.5 0.3
v 0.1 0.5 0.2
v 0.1 0.5 0.1
v 0.1 0.5 -0.1
v 0.1 0.5 -0.4
v 0.1 0.6 0.3
v 0.1 0.6 0.2
v 0.1 0.6 0.1
v 0.1 0.6 -0.1
v 0.1 0.6 -0.2
v 0.1 0.6 -0.4
v 0.1 0.7 -0.1
v 0.1 0.7 -0.2
v 0.1 0.7 -0.3
v 0.1 0.7 -0.4
v 0.1 0.8 -0.1
v 0.1 0.8 -0.2
v 0.1 0.8 -0.3
v 0.1 0.8 -0.4
v 0.2 0.6 -0.1
v 0.2 0.6 -0.2
v 0.2 0.6 -0.4
v 0.2 0.7 0.1
v 0.2 0.7 -0.1
v 0.2 0.7 -0.2
v 0.2 0.7 -0.4
v 0.2 0.8 0.1
v 0.2 0.8 -0.1
v 0.3 0.6 0.4
v 0.3 0.6 0.3
v 0.3 0.6 0.1
v 0.3 0.6 -0.1
v 0.3 0.7 0.4
v 0.3 0.7 0.3
v 0.3 0.7 0.2
v 0.3 0.7 0.1
v 0.3 0.7 -0.1
v 0.3 0.8 0.3
v 0.3 0.8 0.2
v 0.3 0.8 0.1
v 0.4 0.6 0.3
v 0.4 0.6 0.2
v 0.4 0.6 0.1
v 0.4 0.7 0.3
v 0.4 0.7 0.2
v 0.4 0.7 0.1
v -0.3 0.6 0.4
v -0.3 0.7 0.4
v 0.3 0.6 0.4
v 0.3 0.7 0.4
v -0.4 0.6 0.3
v -0.4 0.7 0.3
v -0.3 0.6 0.3
v -0.3 0.7 0.3
v -0.3 0.8 0.3
v -0.1 0.5 0.3
v -0.1 0.6 0.3
v 0.1 0.5 0.3
v 0.1 0.6 0.3
v 0.3 0.6 0.3
v 0.3 0.7 0.3
v 0.3 0.8 0.3
v 0.4 0.6 0.3
v 0.4 0.7 0.3
v -0.1 0.4 0.1
v -0.1 0.5 0.1
v 0.1 0.4 0.1
v 0.1 0.5 0.1
v -0.4 0.6 0.1
v -0.4 0.7 0.1
v -0.3 0.6 0.1
v -0.3 0.7 0.1
v -0.3 0.8 0.1
v -0.2 0.7 0.1
v -0.2 0.8 0.1
v 0.2 0.7 0.1
v 0.2 0.8 0.1
v 0.3 0.6 0.1
v 0.3 0.7 0.1
v 0.3 0.8 0.1
v 0.4 0.6 0.1
v 0.4 0.7 0.1
v -0.1 0.6 -7.45058e-009
v -0.1 0.7 -7.45058e-009
v 0.1 0.6 -7.45058e-009
v 0.1 0.7 -7.45058e-009
v -0.3 0.6 -0.1
v -0.3 0.7 -0.1
v -0.2 0.6 -0.1
v -0.2 0.7 -0.1
v -0.2 0.8 -0.1
v -0.1 0.4 -0.1
v -0.1 0.5 -0.1
v -0.1 0.7 -0.1
v -0.1 0.8 -0.1
v 0.1 0.4 -0.1
v 0.1 0.5 -0.1
v 0.1 0.7 -0.1
v 0.1 0.8 -0.1
v 0.2 0.6 -0.1
v 0.2 0.7 -0.1
v 0.2 0.8 -0.1
v 0.3 0.6 -0.1
v 0.3 0.7 -0.1
v -0.2 0.6 -0.4
v -0.2 0.7 -0.4
v -0.1 0.5 -0.4
v -0.1 0.6 -0.4
v -0.1 0.7 -0.4
v -0.1 0.8 -0.4
v 0.1 0.5 -0.4
v 0.1 0.6 -0.4
v 0.1 0.7 -0.4
v 0.1 0.8 -0.4
v 0.2 0.6 -0.4
v 0.2 0.7 -0.4
v -0.1 0.4 0.1
v 0.1 0.4 0.1
v -0.1 0.4 -0.1
v 0.1 0.4 -0.1
v -0.1 0.5 0.3
v 0.1 0.5 0.3
v -0.1 0.5 0.2
v 0.1 0.5 0.2
v -0.1 0.5 0.1
v 0.1 0.5 0.1
v -0.1 0.5 -0.1
v 0.1 0.5 -0.1
v -0.1 0.5 -0.4
v 0.1 0.5 -0.4
v -0.3 0.6 0.4
v 0.3 0.6 0.4
v -0.4 0.6 0.3
v -0.3 0.6 0.3
v -0.1 0.6 0.3
v 0.1 0.6 0.3
v 0.3 0.6 0.3
v 0.4 0.6 0.3
v -0.4 0.6 0.2
v -0.1 0.6 0.2
v 0.1 0.6 0.2
v 0.4 0.6 0.2
v -0.4 0.6 0.1
v -0.3 0.6 0.1
v -0.1 0.6 0.1
v 0.1 0.6 0.1
v 0.3 0.6 0.1
v 0.4 0.6 0.1
v -0.3 0.6 -0.1
v -0.2 0.6 -0.1
v -0.1 0.6 -0.1
v 0.1 0.6 -0.1
v 0.2 0.6 -0.1
v 0.3 0.6 -0.1
v -0.2 0.6 -0.2
v -0.1 0.6 -0.2
v 0.1 0.6 -0.2
v 0.2 0.6 -0.2
v -0.2 0.6 -0.4
v -0.1 0.6 -0.4
v 0.1 0.6 -0.4
v 0.2 0.6 -0.4
v -0.1 0.7 -7.45058e-009
v 0.1 0.7 -7.45058e-009
v -0.1 0.7 -0.1
v 0.1 0.7 -0.1
v -0.1 0.7 -0.2
v 0.1 0.7 -0.2
v -0.1 0.7 -0.3
v 0.1 0.7 -0.3
v -0.1 0.7 -0.4
v 0.1 0.7 -0.4
v -0.1 0.6 -7.45058e-009
v 0.1 0.6 -7.45058e-009
v -0.1 0.6 -0.1
v 0.1 0.6 -0.1
v -0.1 0.6 -0.2
v 0.1 0.6 -0.2
v -0.1 0.6 -0.4
v 0.1 0.6 -0.4
v -0.3 0.7 0.4
v 0.3 0.7 0.4
v -0.4 0.7 0.3
v -0.3 0.7 0.3
v 0.3 0.7 0.3
v 0.4 0.7 0.3
v -0.4 0.7 0.2
v -0.3 0.7 0.2
v 0.3 0.7 0.2
v 0.4 0.7 0.2
v -0.4 0.7 0.1
v -0.3 0.7 0.1
v -0.2 0.7 0.1
v 0.2 0.7 0.1
v 0.3 0.7 0.1
v 0.4 0.7 0.1
v -0.3 0.7 -0.1
v -0.2 0.7 -0.1
v -0.1 0.7 -0.1
v 0.1 0.7 -0.1
v 0.2 0.7 -0.1
v 0.3 0.7 -0.1
v -0.2 0.7 -0.2
v -0.1 0.7 -0.2
v 0.1 0.7 -0.2
v 0.2 0.7 -0.2
v -0.1 0.7 -0.3
v 0.1 0.7 -0.3
v -0.2 0.7 -0.4
v -0.1 0.7 -0.4
v 0.1 0.7 -0.4
v 0.2 0.7 -0.4
v -0.3 0.8 0.3
v 0.3 0.8 0.3
v -0.3 0.8 0.2
v 0.3 0.8 0.2
v -0.3 0.8 0.1
v -0.2 0.8 0.1
v 0.2 0.8 0.1
v 0.3 0.8 0.1
v -0.2 0.8 -0.1
v -0.1 0.8 -0.1
v 0.1 0.8 -0.1
v 0.2 0.8 -0.1
v -0.1 0.8 -0.2
v 0.1 0.8 -0.2
v -0.1 0.8 -0.3
v 0.1 0.8 -0.3
v -0.1 0.8 -0.4
v 0.1 0.8 -0.4

# faces
f 4/3/1 2/3/1 1/3/1
f 5/1/1 3/1/1 2/1/1
f 5/3/1 2/3/1 4/3/1
f 6/1/1 3/1/1 5/1/1
f 11/3/1 8/3/1 7/3/1
f 12/3/1 8/3/1 11/3/1
f 14/3/1 10/3/1 9/3/1
f 15/3/1 10/3/1 14/3/1
f 16/3/1 13/3/1 12/3/1
f 17/1/1 14/1/1 13/1/1
f 17/3/1 13/3/1 16/3/1
f 18/1/1 14/1/1 17/1/1
f 23/1/1 20/1/1 19/1/1
f 24/3/1 21/3/1 20/3/1
f 24/1/1 20/1/1 23/1/1
f 25/3/1 21/3/1 24/3/1
f 26/3/1 23/3/1 22/3/1
f 27/3/1 23/3/1 26/3/1
f 32/2/1 29/2/1 28/2/1
f 33/2/1 29/2/1 32/2/1
f 35/3/1 31/3/1 30/3/1
f 36/1/1 32/1/1 31/1/1
f 36/3/1 31/3/1 35/3/1
f 37/2/1 33/2/1 32/2/1
f 37/1/1 32/1/1 36/1/1
f 38/3/1 34/3/1 33/3/1
f 38/2/1 33/2/1 37/2/1
f 39/3/1 34/3/1 38/3/1
f 40/3/1 34/3/1 39/3/1
f 45/3/1 42/3/1 41/3/1
f 46/1/1 43/1/1 42/1/1
f 46/3/1 42/3/1 45/3/1
f 47/3/1 44/3/1 43/3/1
f 47/1/1 43/1/1 46/1/1
f 48/3/1 44/3/1 47/3/1
f 53/3/1 50/3/1 49/3/1
f 54/1/1 51/1/1 50/1/1
f 54/3/1 50/3/1 53/3/1
f 55/3/1 52/3/1 51/3/1
f 55/1/1 51/1/1 54/1/1
f 56/3/1 52/3/1 55/3/1
f 57/3/1 52/3/1 56/3/1
f 58/3/2 59/3/2 62/3/2
f 59/1/2 60/1/2 63/1/2
f 62/3/2 59/3/2 63/3/2
f 60/3/2 61/3/2 64/3/2
f 63/1/2 60/1/2 64/1/2
f 64/3/2 61/3/2 65/3/2
f 65/3/2 61/3/2 66/3/2
f 67/2/2 68/2/2 71/2/2
f 71/2/2 68/2/2 72/2/2
f 69/3/2 70/3/2 74/3/2
f 70/1/2 71/1/2 75/1/2
f 74/3/2 70/3/2 75/3/2
f 71/2/2 72/2/2 76/2/2
f 75/1/2 71/1/2 76/1/2
f 72/3/2 73/3/2 77/3/2
f 76/2/2 72/2/2 77/2/2
f 77/3/2 73/3/2 78/3/2
f 78/3/2 73/3/2 79/3/2
f 80/3/2 81/3/2 84/3/2
f 81/1/2 82/1/2 85/1/2
f 84/3/2 81/3/2 85/3/2
f 82/3/2 83/3/2 86/3/2
f 85/1/2 82/1/2 86/1/2
f 86/3/2 83/3/2 87/3/2
f 88/1/2 89/1/2 92/1/2
f 89/3/2 90/3/2 93/3/2
f 92/1/2 89/1/2 93/1/2
f 93/3/2 90/3/2 94/3/2
f 91/3/2 92/3/2 95/3/2
f 95/3/2 92/3/2 96/3/2
f 97/3/2 98/3/2 101/3/2
f 101/3/2 98/3/2 102/3/2
f 99/3/2 100/3/2 104/3/2
f 104/3/2 100/3/2 105/3/2
f 102/3/2 103/3/2 106/3/2
f 103/1/2 104/1/2 107/1/2
f 106/3/2 103/3/2 107/3/2
f 107/1/2 104/1/2 108/1/2
f 109/3/2 110/3/2 112/3/2
f 110/1/2 111/1/2 113/1/2
f 112/3/2 110/3/2 113/3/2
f 113/1/2 111/1/2 114/1/2
f 117/3/3 116/3/3 115/3/3
f 118/3/3 116/3/3 117/3/3
f 121/3/3 120/3/3 119/3/3
f 122/3/3 120/3/3 121/3/3
f 126/3/3 125/3/3 124/3/3
f 127/3/3 125/3/3 126/3/3
f 129/3/3 123/3/3 122/3/3
f 130/3/3 123/3/3 129/3/3
f 131/3/3 129/3/3 128/3/3
f 132/3/3 129/3/3 131/3/3
f 135/2/3 134/2/3 133/2/3
f 136/2/3 134/2/3 135/2/3
f 137/1/4 138/1/4 139/1/4
f 139/1/4 138/1/4 140/1/4
f 140/1/4 141/1/4 142/1/4
f 142/1/4 141/1/4 143/1/4
f 144/1/4 145/1/4 147/1/4
f 147/1/4 145/1/4 148/1/4
f 146/1/4 147/1/4 149/1/4
f 149/1/4 147/1/4 150/1/4
f 151/3/4 152/3/4 153/3/4
f 153/3/4 152/3/4 154/3/4
f 155/3/4 156/3/4 157/3/4
f 157/3/4 156/3/4 158/3/4
f 158/3/4 159/3/4 162/3/4
f 162/3/4 159/3/4 163/3/4
f 160/2/4 161/2/4 164/2/4
f 164/2/4 161/2/4 165/2/4
f 166/3/4 167/3/4 169/3/4
f 169/3/4 167/3/4 170/3/4
f 168/3/4 169/3/4 171/3/4
f 171/3/4 169/3/4 172/3/4
f 173/3/4 174/3/4 176/3/4
f 176/3/4 174/3/4 177/3/4
f 175/3/4 176/3/4 179/3/4
f 179/3/4 176/3/4 180/3/4
f 177/3/4 178/3/4 181/3/4
f 181/3/4 178/3/4 182/3/4
f 180/3/4 181/3/4 183/3/4
f 183/3/4 181/3/4 184/3/4
f 187/2/5 186/2/5 185/2/5
f 188/2/5 186/2/5 187/2/5
f 191/3/5 190/3/5 189/3/5
f 192/3/5 190/3/5 191/3/5
f 193/1/5 192/1/5 191/1/5
f 194/1/5 192/1/5 193/1/5
f 197/3/5 196/3/5 195/3/5
f 198/3/5 196/3/5 197/3/5
f 202/3/5 200/3/5 199/3/5
f 203/3/5 200/3/5 202/3/5
f 204/3/5 200/3/5 203/3/5
f 205/3/5 200/3/5 204/3/5
f 207/3/5 202/3/5 201/3/5
f 207/3/5 203/3/5 202/3/5
f 208/3/5 203/3/5 207/3/5
f 209/3/5 206/3/5 205/3/5
f 209/3/5 205/3/5 204/3/5
f 210/3/5 206/3/5 209/3/5
f 211/1/5 208/1/5 207/1/5
f 212/1/5 208/1/5 211/1/5
f 213/1/5 208/1/5 212/1/5
f 214/1/5 210/1/5 209/1/5
f 215/1/5 210/1/5 214/1/5
f 216/1/5 210/1/5 215/1/5
f 217/3/5 213/3/5 212/3/5
f 218/3/5 213/3/5 217/3/5
f 219/3/5 213/3/5 218/3/5
f 220/3/5 215/3/5 214/3/5
f 221/3/5 215/3/5 220/3/5
f 222/3/5 215/3/5 221/3/5
f 223/1/5 219/1/5 218/1/5
f 224/1/5 219/1/5 223/1/5
f 225/1/5 221/1/5 220/1/5
f 226/1/5 221/1/5 225/1/5
f 227/3/5 224/3/5 223/3/5
f 228/3/5 224/3/5 227/3/5
f 229/3/5 226/3/5 225/3/5
f 230/3/5 226/3/5 229/3/5
f 233/3/5 232/3/5 231/3/5
f 234/3/5 232/3/5 233/3/5
f 235/3/5 234/3/5 233/3/5
f 236/3/5 234/3/5 235/3/5
f 237/1/5 236/1/5 235/1/5
f 238/1/5 236/1/5 237/1/5
f 239/3/5 238/3/5 237/3/5
f 240/3/5 238/3/5 239/3/5
f 241/2/6 242/2/6 243/2/6
f 243/2/6 242/2/6 244/2/6
f 243/3/6 244/3/6 245/3/6
f 245/3/6 244/3/6 246/3/6
f 245/3/6 246/3/6 247/3/6
f 247/3/6 246/3/6 248/3/6
f 249/3/6 250/3/6 252/3/6
f 252/3/6 250/3/6 253/3/6
f 251/3/6 252/3/6 255/3/6
f 255/3/6 252/3/6 256/3/6
f 253/3/6 254/3/6 257/3/6
f 257/3/6 254/3/6 258/3/6
f 255/1/6 256/1/6 259/1/6
f 259/1/6 256/1/6 260/1/6
f 257/1/6 258/1/6 263/1/6
f 263/1/6 258/1/6 264/1/6
f 260/3/6 261/3/6 265/3/6
f 265/3/6 261/3/6 266/3/6
f 262/3/6 263/3/6 269/3/6
f 269/3/6 263/3/6 270/3/6
f 266/1/6 267/1/6 271/1/6
f 271/1/6 267/1/6 272/1/6
f 268/1/6 269/1/6 273/1/6
f 273/1/6 269/1/6 274/1/6
f 271/3/6 272/3/6 275/3/6
f 273/3/6 274/3/6 276/3/6
f 271/3/6 275/3/6 277/3/6
f 277/3/6 275/3/6 278/3/6
f 276/3/6 274/3/6 279/3/6
f 279/3/6 274/3/6 280/3/6
f 281/3/6 282/3/6 283/3/6
f 283/3/6 282/3/6 284/3/6
f 283/1/6 284/1/6 285/1/6
f 285/1/6 284/1/6 286/1/6
f 286/1/6 284/1/6 287/1/6
f 287/1/6 284/1/6 288/1/6
f 286/3/6 287/3/6 289/3/6
f 289/3/6 287/3/6 290/3/6
f 290/3/6 287/3/6 291/3/6
f 291/3/6 287/3/6 292/3/6
f 290/3/6 291/3/6 293/3/6
f 293/3/6 291/3/6 294/3/6
f 293/1/6 294/1/6 295/1/6
f 295/1/6 294/1/6 296/1/6
f 295/3/6 296/3/6 297/3/6
f 297/3/6 296/3/6 298/3/6
