# MagicaVoxel @ Ephtracy

# group
o 

# material
mtllib slime_zomby.mtl
usemtl palette

# normals
vn -1 0 0
vn 1 0 0
vn 0 0 1
vn 0 0 -1
vn 0 -1 0
vn 0 1 0

# texcoords
vt 0.701172 0.5
vt 0.744141 0.5
vt 0.763672 0.5
vt 0.767578 0.5
vt 0.810547 0.5
vt 0.869141 0.5

# verts
v -0.4 0.5 0.6
v -0.4 0.5 -0.2
v -0.4 0.7 0.6
v -0.4 0.7 -0.2
v -0.2 0 3.72529e-008
v -0.2 0 -0.6
v -0.2 0.1 0.1
v -0.2 0.1 3.72529e-008
v -0.2 0.1 -0.3
v -0.2 0.1 -0.5
v -0.2 0.1 -0.6
v -0.2 0.2 3.72529e-008
v -0.2 0.2 -0.1
v -0.2 0.2 -0.3
v -0.2 0.2 -0.5
v -0.2 0.3 0.1
v -0.2 0.3 3.72529e-008
v -0.2 0.3 -0.1
v -0.2 0.3 -0.2
v -0.2 0.3 -0.5
v -0.2 0.3 -0.6
v -0.2 0.4 -0.2
v -0.2 0.4 -0.5
v -0.2 0.5 0.1
v -0.2 0.5 3.72529e-008
v -0.2 0.5 -0.2
v -0.2 0.7 0.2
v -0.2 0.7 -0.2
v -0.2 0.9 0.2
v -0.2 0.9 0.1
v -0.2 1 0.2
v -0.2 1 0.1
v -0.2 1.1 0.2
v -0.2 1.1 -0.2
v 0.2 0.5 0.6
v 0.2 0.5 0.1
v 0.2 0.7 0.6
v 0.2 0.7 0.2
v 0.2 0.7 0.1
v -0.2 0.5 0.6
v -0.2 0.5 0.1
v -0.2 0.7 0.6
v -0.2 0.7 0.2
v -0.2 0.7 0.1
v 0.1 1 -0.1
v 0.1 1 -0.2
v 0.1 1.1 -0.1
v 0.1 1.1 -0.2
v 0.2 0 3.72529e-008
v 0.2 0 -0.6
v 0.2 0.1 0.1
v 0.2 0.1 3.72529e-008
v 0.2 0.1 -0.3
v 0.2 0.1 -0.5
v 0.2 0.1 -0.6
v 0.2 0.2 -0.1
v 0.2 0.2 -0.2
v 0.2 0.2 -0.3
v 0.2 0.2 -0.5
v 0.2 0.3 0.1
v 0.2 0.3 3.72529e-008
v 0.2 0.3 -0.1
v 0.2 0.3 -0.2
v 0.2 0.3 -0.5
v 0.2 0.3 -0.6
v 0.2 0.4 0.1
v 0.2 0.4 3.72529e-008
v 0.2 0.4 -0.1
v 0.2 0.4 -0.2
v 0.2 0.4 -0.5
v 0.2 0.5 0.1
v 0.2 0.5 -0.1
v 0.2 0.5 -0.2
v 0.2 0.7 0.2
v 0.2 0.7 -0.2
v 0.2 0.9 0.2
v 0.2 0.9 0.1
v 0.2 1 0.2
v 0.2 1 0.1
v 0.2 1 -0.1
v 0.2 1 -0.2
v 0.2 1.1 0.2
v 0.2 1.1 -0.1
v 0.4 0.5 0.6
v 0.4 0.5 -0.2
v 0.4 0.7 0.6
v 0.4 0.7 -0.2
v -0.4 0.5 0.6
v -0.4 0.7 0.6
v -0.2 0.5 0.6
v -0.2 0.7 0.6
v 0.2 0.5 0.6
v 0.2 0.7 0.6
v 0.4 0.5 0.6
v 0.4 0.7 0.6
v -0.2 0.7 0.2
v -0.2 0.9 0.2
v -0.2 1 0.2
v -0.2 1.1 0.2
v -0.1 0.7 0.2
v -0.1 0.8 0.2
v -0.1 0.9 0.2
v -0.1 1 0.2
v 0.1 0.7 0.2
v 0.1 0.8 0.2
v 0.1 0.9 0.2
v 0.1 1 0.2
v 0.2 0.7 0.2
v 0.2 0.9 0.2
v 0.2 1 0.2
v 0.2 1.1 0.2
v -0.2 0.1 0.1
v -0.2 0.3 0.1
v -0.2 0.5 0.1
v -0.2 0.7 0.1
v -0.1 0.4 0.1
v -0.1 0.5 0.1
v -0.1 0.7 0.1
v 7.45058e-009 0.3 0.1
v 7.45058e-009 0.4 0.1
v 7.45058e-009 0.6 0.1
v 7.45058e-009 0.7 0.1
v 0.1 0.3 0.1
v 0.1 0.4 0.1
v 0.1 0.6 0.1
v 0.1 0.7 0.1
v 0.2 0.1 0.1
v 0.2 0.3 0.1
v 0.2 0.4 0.1
v 0.2 0.5 0.1
v 0.2 0.7 0.1
v -0.2 0 3.72529e-008
v -0.2 0.1 3.72529e-008
v 0.2 0 3.72529e-008
v 0.2 0.1 3.72529e-008
v 0.1 1 -0.1
v 0.1 1.1 -0.1
v 0.2 1 -0.1
v 0.2 1.1 -0.1
v -0.4 0.5 -0.2
v -0.4 0.7 -0.2
v -0.2 0.4 -0.2
v -0.2 0.5 -0.2
v -0.2 0.6 -0.2
v -0.2 0.7 -0.2
v -0.2 1.1 -0.2
v -0.1 0.5 -0.2
v -0.1 0.6 -0.2
v 0.1 0.4 -0.2
v 0.1 0.5 -0.2
v 0.1 1 -0.2
v 0.1 1.1 -0.2
v 0.2 0.4 -0.2
v 0.2 0.5 -0.2
v 0.2 0.7 -0.2
v 0.2 1 -0.2
v 0.4 0.5 -0.2
v 0.4 0.7 -0.2
v -0.2 0.3 -0.5
v -0.2 0.4 -0.5
v -0.1 0.3 -0.5
v 7.45058e-009 0.3 -0.5
v 0.2 0.3 -0.5
v 0.2 0.4 -0.5
v -0.2 0 -0.6
v -0.2 0.1 -0.6
v -0.2 0.3 -0.6
v -0.1 0.2 -0.6
v -0.1 0.3 -0.6
v 7.45058e-009 0.2 -0.6
v 7.45058e-009 0.3 -0.6
v 0.2 0 -0.6
v 0.2 0.1 -0.6
v 0.2 0.3 -0.6
v -0.2 0 3.72529e-008
v 0.2 0 3.72529e-008
v -0.2 0 -0.6
v 0.2 0 -0.6
v -0.2 0.1 0.1
v 0.2 0.1 0.1
v -0.2 0.1 3.72529e-008
v 0.2 0.1 3.72529e-008
v -0.4 0.5 0.6
v -0.2 0.5 0.6
v 0.2 0.5 0.6
v 0.4 0.5 0.6
v -0.2 0.5 0.1
v 0.2 0.5 0.1
v -0.2 0.5 3.72529e-008
v 0.2 0.5 -0.1
v -0.4 0.5 -0.2
v -0.2 0.5 -0.2
v 0.2 0.5 -0.2
v 0.4 0.5 -0.2
v -0.2 0.7 0.2
v -0.1 0.7 0.2
v 0.1 0.7 0.2
v 0.2 0.7 0.2
v -0.2 0.7 0.1
v -0.1 0.7 0.1
v 7.45058e-009 0.7 0.1
v 0.1 0.7 0.1
v 0.2 0.7 0.1
v -0.2 0.3 -0.5
v -0.1 0.3 -0.5
v 7.45058e-009 0.3 -0.5
v 0.2 0.3 -0.5
v -0.2 0.3 -0.6
v -0.1 0.3 -0.6
v 7.45058e-009 0.3 -0.6
v 0.2 0.3 -0.6
v -0.2 0.4 -0.2
v 0.1 0.4 -0.2
v 0.2 0.4 -0.2
v 7.45058e-009 0.4 -0.3
v 0.1 0.4 -0.3
v 7.45058e-009 0.4 -0.4
v 0.1 0.4 -0.4
v -0.2 0.4 -0.5
v 0.2 0.4 -0.5
v -0.4 0.7 0.6
v -0.2 0.7 0.6
v 0.2 0.7 0.6
v 0.4 0.7 0.6
v -0.2 0.7 0.2
v 0.2 0.7 0.2
v -0.4 0.7 -0.2
v -0.2 0.7 -0.2
v 0.2 0.7 -0.2
v 0.4 0.7 -0.2
v 0.1 1 -0.1
v 0.2 1 -0.1
v 0.1 1 -0.2
v 0.2 1 -0.2
v -0.2 1.1 0.2
v 0.2 1.1 0.2
v 0.1 1.1 -0.1
v 0.2 1.1 -0.1
v -0.2 1.1 -0.2
v 0.1 1.1 -0.2

# faces
f 3/3/1 2/3/1 1/3/1
f 4/3/1 2/3/1 3/3/1
f 8/4/1 6/4/1 5/4/1
f 9/4/1 6/4/1 8/4/1
f 10/4/1 6/4/1 9/4/1
f 11/4/1 6/4/1 10/4/1
f 12/2/1 8/2/1 7/2/1
f 12/2/1 9/2/1 8/2/1
f 13/2/1 9/2/1 12/2/1
f 14/4/1 10/4/1 9/4/1
f 14/2/1 9/2/1 13/2/1
f 15/2/1 11/2/1 10/2/1
f 15/4/1 10/4/1 14/4/1
f 16/2/1 12/2/1 7/2/1
f 17/4/1 13/4/1 12/4/1
f 17/2/1 12/2/1 16/2/1
f 18/2/1 14/2/1 13/2/1
f 18/4/1 13/4/1 17/4/1
f 18/2/1 15/2/1 14/2/1
f 19/2/1 15/2/1 18/2/1
f 20/2/1 11/2/1 15/2/1
f 20/2/1 15/2/1 19/2/1
f 21/2/1 11/2/1 20/2/1
f 22/5/1 19/5/1 18/5/1
f 22/5/1 18/5/1 17/5/1
f 22/2/1 20/2/1 19/2/1
f 23/2/1 20/2/1 22/2/1
f 24/1/1 17/1/1 16/1/1
f 25/5/1 22/5/1 17/5/1
f 25/1/1 17/1/1 24/1/1
f 26/5/1 22/5/1 25/5/1
f 29/3/1 28/3/1 27/3/1
f 30/3/1 28/3/1 29/3/1
f 31/6/1 30/6/1 29/6/1
f 32/3/1 28/3/1 30/3/1
f 32/6/1 30/6/1 31/6/1
f 33/3/1 32/3/1 31/3/1
f 34/3/1 28/3/1 32/3/1
f 34/3/1 32/3/1 33/3/1
f 37/3/1 36/3/1 35/3/1
f 38/3/1 36/3/1 37/3/1
f 39/3/1 36/3/1 38/3/1
f 40/3/2 41/3/2 42/3/2
f 42/3/2 41/3/2 43/3/2
f 43/3/2 41/3/2 44/3/2
f 45/3/2 46/3/2 47/3/2
f 47/3/2 46/3/2 48/3/2
f 49/4/2 50/4/2 52/4/2
f 52/4/2 50/4/2 53/4/2
f 53/4/2 50/4/2 54/4/2
f 54/4/2 50/4/2 55/4/2
f 51/2/2 52/2/2 56/2/2
f 52/2/2 53/2/2 56/2/2
f 56/2/2 53/2/2 57/2/2
f 53/4/2 54/4/2 58/4/2
f 57/2/2 53/2/2 58/2/2
f 54/2/2 55/2/2 59/2/2
f 58/4/2 54/4/2 59/4/2
f 51/2/2 56/2/2 60/2/2
f 60/2/2 56/2/2 61/2/2
f 56/4/2 57/4/2 62/4/2
f 61/2/2 56/2/2 62/2/2
f 57/2/2 58/2/2 63/2/2
f 62/4/2 57/4/2 63/4/2
f 58/2/2 59/2/2 63/2/2
f 59/2/2 55/2/2 64/2/2
f 63/2/2 59/2/2 64/2/2
f 64/2/2 55/2/2 65/2/2
f 60/1/2 61/1/2 66/1/2
f 61/5/2 62/5/2 67/5/2
f 66/1/2 61/1/2 67/1/2
f 62/5/2 63/5/2 67/5/2
f 67/5/2 63/5/2 68/5/2
f 63/2/2 64/2/2 69/2/2
f 68/5/2 63/5/2 69/5/2
f 69/2/2 64/2/2 70/2/2
f 67/5/2 68/5/2 71/5/2
f 66/5/2 67/5/2 71/5/2
f 68/1/2 69/1/2 72/1/2
f 71/5/2 68/5/2 72/5/2
f 72/1/2 69/1/2 73/1/2
f 74/3/2 75/3/2 76/3/2
f 76/3/2 75/3/2 77/3/2
f 76/6/2 77/6/2 78/6/2
f 77/3/2 75/3/2 79/3/2
f 78/6/2 77/6/2 79/6/2
f 79/3/2 75/3/2 80/3/2
f 80/3/2 75/3/2 81/3/2
f 78/3/2 79/3/2 82/3/2
f 79/3/2 80/3/2 82/3/2
f 82/3/2 80/3/2 83/3/2
f 84/3/2 85/3/2 86/3/2
f 86/3/2 85/3/2 87/3/2
f 90/3/3 89/3/3 88/3/3
f 91/3/3 89/3/3 90/3/3
f 94/3/3 93/3/3 92/3/3
f 95/3/3 93/3/3 94/3/3
f 100/3/3 97/3/3 96/3/3
f 101/3/3 97/3/3 100/3/3
f 102/6/3 98/6/3 97/6/3
f 102/3/3 97/3/3 101/3/3
f 103/3/3 99/3/3 98/3/3
f 103/6/3 98/6/3 102/6/3
f 104/6/3 101/6/3 100/6/3
f 105/3/3 102/3/3 101/3/3
f 105/6/3 101/6/3 104/6/3
f 105/3/3 103/3/3 102/3/3
f 106/3/3 103/3/3 105/3/3
f 107/3/3 99/3/3 103/3/3
f 107/3/3 103/3/3 106/3/3
f 108/3/3 106/3/3 105/3/3
f 108/3/3 105/3/3 104/3/3
f 109/6/3 107/6/3 106/6/3
f 109/3/3 106/3/3 108/3/3
f 110/3/3 99/3/3 107/3/3
f 110/6/3 107/6/3 109/6/3
f 111/3/3 99/3/3 110/3/3
f 116/1/3 114/1/3 113/1/3
f 117/5/3 115/5/3 114/5/3
f 117/1/3 114/1/3 116/1/3
f 118/5/3 115/5/3 117/5/3
f 119/2/3 113/2/3 112/2/3
f 119/1/3 116/1/3 113/1/3
f 120/5/3 118/5/3 117/5/3
f 120/1/3 116/1/3 119/1/3
f 120/5/3 117/5/3 116/5/3
f 121/5/3 118/5/3 120/5/3
f 122/5/3 118/5/3 121/5/3
f 123/2/3 119/2/3 112/2/3
f 123/5/3 120/5/3 119/5/3
f 123/5/3 121/5/3 120/5/3
f 124/5/3 121/5/3 123/5/3
f 125/1/3 122/1/3 121/1/3
f 125/5/3 121/5/3 124/5/3
f 126/1/3 122/1/3 125/1/3
f 127/2/3 123/2/3 112/2/3
f 128/1/3 124/1/3 123/1/3
f 128/2/3 123/2/3 127/2/3
f 129/5/3 125/5/3 124/5/3
f 129/1/3 124/1/3 128/1/3
f 129/5/3 126/5/3 125/5/3
f 130/5/3 126/5/3 129/5/3
f 131/5/3 126/5/3 130/5/3
f 134/4/3 133/4/3 132/4/3
f 135/4/3 133/4/3 134/4/3
f 136/3/4 137/3/4 138/3/4
f 138/3/4 137/3/4 139/3/4
f 140/3/4 141/3/4 143/3/4
f 143/3/4 141/3/4 144/3/4
f 144/3/4 141/3/4 145/3/4
f 142/5/4 143/5/4 147/5/4
f 143/1/4 144/1/4 147/1/4
f 144/5/4 145/5/4 148/5/4
f 147/1/4 144/1/4 148/1/4
f 142/5/4 147/5/4 149/5/4
f 147/5/4 148/5/4 149/5/4
f 149/5/4 148/5/4 150/5/4
f 145/3/4 146/3/4 151/3/4
f 151/3/4 146/3/4 152/3/4
f 149/1/4 150/1/4 153/1/4
f 150/5/4 148/5/4 154/5/4
f 153/1/4 150/1/4 154/1/4
f 148/5/4 145/5/4 155/5/4
f 154/5/4 148/5/4 155/5/4
f 145/3/4 151/3/4 155/3/4
f 155/3/4 151/3/4 156/3/4
f 154/3/4 155/3/4 157/3/4
f 157/3/4 155/3/4 158/3/4
f 159/2/4 160/2/4 161/2/4
f 161/2/4 160/2/4 162/2/4
f 162/2/4 160/2/4 163/2/4
f 163/2/4 160/2/4 164/2/4
f 166/2/4 167/2/4 168/2/4
f 168/2/4 167/2/4 169/2/4
f 166/2/4 168/2/4 170/2/4
f 168/4/4 169/4/4 170/4/4
f 170/4/4 169/4/4 171/4/4
f 165/4/4 166/4/4 172/4/4
f 166/2/4 170/2/4 173/2/4
f 172/4/4 166/4/4 173/4/4
f 170/2/4 171/2/4 173/2/4
f 173/2/4 171/2/4 174/2/4
f 177/4/5 176/4/5 175/4/5
f 178/4/5 176/4/5 177/4/5
f 181/2/5 180/2/5 179/2/5
f 182/2/5 180/2/5 181/2/5
f 187/3/5 184/3/5 183/3/5
f 188/3/5 186/3/5 185/3/5
f 189/3/5 187/3/5 183/3/5
f 190/3/5 186/3/5 188/3/5
f 191/3/5 189/3/5 183/3/5
f 192/3/5 189/3/5 191/3/5
f 193/3/5 186/3/5 190/3/5
f 194/3/5 186/3/5 193/3/5
f 199/3/5 196/3/5 195/3/5
f 200/6/5 197/6/5 196/6/5
f 200/3/5 196/3/5 199/3/5
f 201/6/5 197/6/5 200/6/5
f 202/3/5 198/3/5 197/3/5
f 202/6/5 197/6/5 201/6/5
f 203/3/5 198/3/5 202/3/5
f 204/2/6 205/2/6 208/2/6
f 205/4/6 206/4/6 209/4/6
f 208/2/6 205/2/6 209/2/6
f 206/2/6 207/2/6 210/2/6
f 209/4/6 206/4/6 210/4/6
f 210/2/6 207/2/6 211/2/6
f 212/2/6 213/2/6 215/2/6
f 213/2/6 214/2/6 215/2/6
f 215/2/6 214/2/6 216/2/6
f 212/2/6 215/2/6 217/2/6
f 215/4/6 216/4/6 217/4/6
f 216/2/6 214/2/6 218/2/6
f 217/4/6 216/4/6 218/4/6
f 212/2/6 217/2/6 219/2/6
f 217/2/6 218/2/6 219/2/6
f 218/2/6 214/2/6 220/2/6
f 219/2/6 218/2/6 220/2/6
f 221/3/6 222/3/6 225/3/6
f 223/3/6 224/3/6 226/3/6
f 221/3/6 225/3/6 227/3/6
f 227/3/6 225/3/6 228/3/6
f 226/3/6 224/3/6 229/3/6
f 229/3/6 224/3/6 230/3/6
f 231/3/6 232/3/6 233/3/6
f 233/3/6 232/3/6 234/3/6
f 235/3/6 236/3/6 237/3/6
f 237/3/6 236/3/6 238/3/6
f 235/3/6 237/3/6 239/3/6
f 239/3/6 237/3/6 240/3/6
